<svg width="59" height="59" viewBox="0 0 59 59" fill="none" xmlns="http://www.w3.org/2000/svg">
<g clip-path="url(#clip0_94_300)">
<path d="M36.6444 0.20742C36.4255 0.311131 36.1259 0.576172 35.9876 0.795116C35.7456 1.16387 35.7225 1.31367 35.7225 2.92695V4.67851L34.5011 5.17402L33.2796 5.66953L32.1042 4.51719C31.4704 3.8834 30.8251 3.30722 30.6868 3.23809C30.3641 3.07676 29.7304 3.07676 29.304 3.23809C28.9352 3.37637 25.4091 6.82187 25.1671 7.28281C24.9481 7.70918 24.9596 8.64258 25.1901 8.98828C25.2938 9.14961 25.87 9.77188 26.4692 10.3711L27.5524 11.4773L27.2182 12.2148C27.0339 12.6297 26.8149 13.1598 26.7458 13.3902L26.596 13.8281H24.8444C23.2081 13.8281 23.0583 13.8512 22.6895 14.0932C21.929 14.6002 21.8829 14.8076 21.9175 17.9996C21.952 20.6846 21.9636 20.8574 22.194 21.1686C22.7011 21.8369 23.0583 21.9521 24.9251 21.9982C26.3886 22.0328 26.6421 22.0674 26.6997 22.2287C26.7343 22.3324 26.9417 22.8279 27.1491 23.335L27.5409 24.2453L26.3886 25.4092C25.7663 26.0545 25.1901 26.7229 25.121 26.8957C24.9712 27.3105 24.9712 28.0711 25.1325 28.3822C25.3169 28.7395 28.8085 32.2541 29.1772 32.45C29.6036 32.6689 30.537 32.6574 30.8827 32.427C31.044 32.3232 31.6663 31.7471 32.277 31.1479L33.3833 30.0531L33.9479 30.3412C34.2591 30.491 34.72 30.6869 34.9735 30.7676C35.7341 31.0096 35.7225 30.975 35.7225 32.8303C35.7225 34.7201 35.8263 35.0428 36.5522 35.4922C36.9095 35.6996 37.1399 35.7227 39.6981 35.7227C42.7979 35.7227 43.0284 35.6766 43.5239 34.9275C43.7659 34.5588 43.7889 34.409 43.7889 32.7727V31.0211L44.2268 30.8713C44.4573 30.8021 44.9874 30.5832 45.4022 30.3988L46.1397 30.0646L47.246 31.1479C47.8452 31.7471 48.4675 32.3232 48.6288 32.427C48.9745 32.6574 49.9079 32.6689 50.3343 32.45C50.8067 32.1965 54.2407 28.6818 54.3905 28.3131C54.5403 27.8867 54.5403 27.2414 54.379 26.9303C54.3098 26.792 53.7337 26.1467 53.0999 25.5129L51.9475 24.3375L52.4085 23.2082L52.8694 22.0674L54.5864 22.0098C56.4532 21.9406 56.822 21.8254 57.3175 21.1686C57.5479 20.8574 57.5595 20.6846 57.594 18.0227C57.6286 14.8998 57.5825 14.6463 56.8796 14.1393C56.5569 13.9088 56.3725 13.8857 54.7247 13.8512L52.9386 13.8166L52.4546 12.6412L51.9706 11.4773L53.1229 10.3135C53.7452 9.66816 54.3214 8.9998 54.3905 8.82695C54.5403 8.42363 54.5403 7.82441 54.379 7.40957C54.2177 6.99473 50.7722 3.51465 50.2882 3.28418C49.8042 3.05371 49.1704 3.06524 48.7095 3.2957C48.502 3.39941 47.8452 3.97559 47.246 4.56328L46.1513 5.63496L44.9759 5.1625L43.8005 4.67851L43.7659 2.89238C43.7313 1.24453 43.7083 1.06015 43.4778 0.737499C42.9823 0.0576172 42.7173 0 39.7327 0C37.405 0 36.9901 0.0230446 36.6444 0.20742ZM41.9452 3.6875C41.9452 4.78223 41.9913 5.63496 42.072 5.79629C42.2218 6.13047 42.4522 6.25723 43.4432 6.56836C43.8581 6.69512 44.6071 7.00625 45.1141 7.25977C46.4854 7.95117 46.4739 7.95117 48.0987 6.33789L49.493 4.95508L51.0718 6.53379L52.662 8.1125L51.2792 9.51836C49.6659 11.1432 49.6659 11.1316 50.3573 12.5029C50.6108 13.01 50.922 13.759 51.0487 14.1738C51.3598 15.1648 51.4866 15.3953 51.8208 15.5451C51.9821 15.6258 52.8348 15.6719 53.9296 15.6719H55.7733V17.9189V20.166H53.7798C51.4175 20.166 51.5442 20.0969 51.0257 21.6295C50.8413 22.1826 50.5071 22.9777 50.2882 23.3926C49.6659 24.568 49.6774 24.6256 51.2792 26.2158L52.662 27.5986L51.0833 29.1773L49.5046 30.7676L48.0987 29.3848C47.0155 28.3131 46.6352 28.002 46.3932 28.002C46.2319 28.002 45.6903 28.1979 45.1948 28.4514C44.7108 28.6934 43.8811 29.0391 43.3626 29.2119C41.9913 29.6613 42.0143 29.6152 41.9682 31.9314L41.9337 33.8789H39.7557H37.5893L37.5432 31.9314C37.4971 29.6152 37.5202 29.6613 36.1489 29.2119C35.6304 29.0391 34.8007 28.6934 34.3167 28.4514C33.8212 28.1979 33.2796 28.002 33.1182 28.002C32.8763 28.002 32.496 28.3016 31.4128 29.3848L30.0184 30.7676L28.4397 29.1889L26.8495 27.6102L28.2323 26.2043C29.304 25.1211 29.6151 24.7408 29.6151 24.4988C29.6151 24.3375 29.4077 23.7844 29.1542 23.2773C28.9007 22.7703 28.5665 21.9521 28.4052 21.4682C27.9557 20.1084 28.071 20.166 25.7317 20.166H23.7382V17.9189V15.6719H25.628C27.9327 15.6719 27.9442 15.6604 28.4167 14.2545C28.5895 13.7359 28.9237 12.9062 29.1657 12.4223C29.4192 11.9268 29.6151 11.3852 29.6151 11.2238C29.6151 10.9818 29.304 10.6016 28.2323 9.51836L26.8495 8.1125L28.4397 6.53379L30.0184 4.95508L31.4013 6.33789C32.5075 7.44414 32.8417 7.7207 33.1067 7.7207C33.2796 7.7207 33.9018 7.49023 34.4895 7.20215C35.0772 6.92558 35.8723 6.60293 36.2641 6.49922C37.4626 6.16504 37.4971 6.0959 37.5432 3.79121L37.5893 1.84375H39.7673H41.9452V3.6875Z" fill="black"/>
<path d="M37.7277 9.55288C34.674 10.3019 32.231 12.7218 31.4589 15.741C31.1478 16.9509 31.1478 18.7716 31.4589 19.9931C32.4384 23.8189 35.7687 26.3886 39.7558 26.4001C43.5585 26.4001 46.6929 24.107 47.9375 20.3964C48.3292 19.2441 48.3869 17.1814 48.0642 15.9023C47.2691 12.7218 44.7339 10.1982 41.6341 9.51831C40.5509 9.27632 38.7763 9.29937 37.7277 9.55288ZM41.4152 11.3621C42.5214 11.6501 43.6392 12.2955 44.4804 13.1367C48.0296 16.6859 46.5546 22.7472 41.7724 24.2683C40.7353 24.6025 39.2027 24.6601 38.2001 24.4296C35.8609 23.865 33.8673 21.9175 33.2451 19.5898C32.9685 18.5642 33.0261 16.8818 33.3603 15.8216C34.0402 13.6898 35.8724 11.9498 38.0388 11.3621C38.88 11.1316 40.5394 11.1316 41.4152 11.3621Z" fill="black"/>
<path d="M53.2613 34.0518C52.1666 34.3859 49.1244 36.6561 46.6123 38.9953C44.3768 41.0811 43.9504 41.2078 41.0811 40.7354C37.0248 40.067 32.934 38.9031 28.025 37.0248C24.1301 35.5383 22.4016 35.1811 19.7627 35.2963C16.3518 35.4576 13.3557 36.6561 10.4057 39.0299C10.0369 39.318 9.66816 39.6061 9.59902 39.6752C9.49531 39.7443 9.41465 39.6867 9.32246 39.4563C9.13809 38.9377 8.87305 38.7188 8.46973 38.7188C8.2623 38.7188 6.36094 39.1797 4.25215 39.7559C0.265039 40.8275 0 40.9313 0 41.4959C0 41.6227 1.01406 45.4945 2.24707 50.1039C4.2291 57.502 4.52871 58.516 4.78223 58.7465C4.95508 58.8848 5.1625 59 5.26621 59C5.5543 59 12.8025 57.0641 13.2174 56.8682C13.6898 56.6607 13.7936 56.2805 13.6092 55.3932C13.5285 55.0129 13.4824 54.7018 13.5055 54.6787C13.5285 54.6672 14.3467 54.2754 15.3262 53.8145L17.1123 52.9848L18.3223 53.0424C19.9125 53.1115 22.4016 53.6416 25.6627 54.575C30.3066 55.9232 30.9289 56.0846 32.0697 56.2805C33.5447 56.534 35.9531 56.534 37.1631 56.292C38.4768 56.0154 39.6752 55.5199 40.7353 54.817C41.2424 54.4713 42.3025 53.8145 43.0977 53.3535C43.8928 52.8811 45.5521 51.867 46.7852 51.0719C51.4406 48.1104 52.0283 47.6148 54.1486 44.7801C55.9693 42.3371 58.5506 38.5229 58.7811 37.9006C59.3342 36.4602 58.758 35.1811 57.2254 34.4666C55.9924 33.8789 54.3445 33.7061 53.2613 34.0518ZM56.2459 36.0338C56.8912 36.3219 57.1562 36.5869 57.1562 36.9441C57.1562 37.117 56.5916 38.0504 55.7389 39.3295C53.123 43.2014 51.2332 45.6674 50.2652 46.4855C49.2627 47.3152 44.273 50.5533 41.542 52.1436C40.9082 52.5123 40.0094 53.0654 39.5484 53.365C38.2463 54.2293 37.1746 54.5289 35.158 54.598C32.8994 54.6672 31.6318 54.4482 28.4629 53.4688C26.1006 52.7313 23.335 51.9938 21.4912 51.602C20.0508 51.3023 19.4977 51.2447 18.1494 51.2332L16.5361 51.2217L14.7615 52.0514C13.782 52.5123 12.9754 52.8811 12.9523 52.858C12.9408 52.8465 12.2494 50.3229 11.4197 47.2461L9.92168 41.6572L10.1752 41.4844C10.3135 41.3922 11.0971 40.8045 11.9152 40.1938C14.75 38.0734 17.3889 37.1055 20.3619 37.1055C22.4477 37.1055 23.9572 37.4512 26.9879 38.615C32.0812 40.574 36.852 41.9338 40.9543 42.5906C42.1643 42.7865 42.2334 42.8096 42.7174 43.2705C42.9824 43.5355 43.2129 43.8352 43.2129 43.9389C43.2129 44.25 42.6598 44.5842 41.4959 44.9529C40.4818 45.2871 40.309 45.3102 39.3525 45.241C38.7879 45.1949 37.4396 45.0105 36.3564 44.8262C35.2848 44.6303 33.4871 44.3191 32.3809 44.1232C29.2695 43.5701 27.5871 43.6508 26.2504 44.3998C25.4668 44.8262 25.4437 45.7135 26.2043 46.0822C26.5039 46.2205 26.5961 46.209 27.1492 45.99C28.5205 45.4139 29.5691 45.4484 33.6484 46.209C37.6586 46.958 38.327 47.0502 39.6982 47.0617C40.9773 47.0732 41.1617 47.0387 42.1758 46.693C43.4318 46.2551 44.25 45.7711 44.6764 45.2064C45.0797 44.6764 45.1719 43.7314 44.8838 43.0861C44.7686 42.8441 44.6994 42.6252 44.7225 42.6021C44.7455 42.5906 45.1258 42.4063 45.5521 42.1873C46.1398 41.8992 46.7275 41.4383 47.7762 40.4357C49.5508 38.7533 50.7262 37.8084 52.4893 36.6215L53.8721 35.6996L54.8055 35.7572C55.3701 35.7918 55.9348 35.8955 56.2459 36.0338ZM9.74883 48.0758C10.832 52.0859 11.6963 55.3816 11.6848 55.4047C11.6732 55.4162 10.4057 55.7734 8.87305 56.1883C7.09844 56.6607 6.03828 56.8912 5.99219 56.8105C5.9 56.6492 2.05117 42.2795 2.09727 42.2449C2.20098 42.1758 7.35195 40.816 7.55937 40.8045C7.77832 40.793 7.95117 41.3807 9.74883 48.0758Z" fill="black"/>
</g>
<defs>
<clipPath id="clip0_94_300">
<rect width="59" height="59" fill="white"/>
</clipPath>
</defs>
</svg>
