<svg width="59" height="59" viewBox="0 0 59 59" fill="none" xmlns="http://www.w3.org/2000/svg">
<path d="M25.075 59.0001C18.3785 59.0001 12.0802 56.3923 7.3455 51.6546C2.61075 46.9169 0 40.6216 0 33.9251C0 27.2286 2.6078 20.9303 7.3455 16.1956C12.0832 11.4608 18.3785 8.8501 25.075 8.8501C25.8892 8.8501 26.55 9.5109 26.55 10.3251V32.4501H48.675C49.4892 32.4501 50.15 33.1109 50.15 33.9251C50.15 40.6216 47.5422 46.9198 42.8045 51.6546C38.0668 56.3893 31.7715 59.0001 25.075 59.0001ZM23.6 11.8473C12.0861 12.6084 2.95 22.2195 2.95 33.9251C2.95 46.1263 12.8738 56.0501 25.075 56.0501C36.7776 56.0501 46.3887 46.9139 47.1528 35.4001H25.075C24.2608 35.4001 23.6 34.7393 23.6 33.9251V11.8473Z" fill="black"/>
<path d="M54.575 29.5H30.975C30.1608 29.5 29.5 28.8392 29.5 28.025V4.42495C29.5 3.61075 30.1608 2.94995 30.975 2.94995C37.6715 2.94995 43.9698 5.55775 48.7045 10.2955C53.4393 15.0332 56.05 21.3285 56.05 28.025C56.05 28.8392 55.3892 29.5 54.575 29.5ZM32.45 26.55H53.0528C52.3241 15.5229 43.4771 6.67875 32.45 5.94715V26.55Z" fill="#0BE949"/>
</svg>
