<svg width="56" height="52" viewBox="0 0 56 52" fill="none" xmlns="http://www.w3.org/2000/svg">
<path d="M17.4466 12.7942V13.5642H17.8009L9.49992 21.4183H7.77896L5.65309 23.6513L3.07168 26.1923L2.66675 27.0394C2.68363 27.5527 2.70723 28.6103 2.66675 28.7334L26.3551 25.4994L29.1897 25.0374L31.3659 24.5754C31.9734 24.4214 33.2185 24.0979 33.3401 24.0364C33.4918 23.9594 35.4659 22.8043 35.7697 22.6503C36.0734 22.4963 38.6041 20.7253 38.8065 20.6483C38.9686 20.5867 39.8526 19.75 40.2745 19.3393L41.3374 18.4923C41.9955 18.0303 43.3518 17.0447 43.5139 16.7983C43.7163 16.4902 44.7286 15.7973 44.8299 15.6432C44.911 15.5201 45.5049 14.7192 45.7916 14.3342L45.6398 13.7182L45.4374 13.2562L45.083 12.7942L44.5262 12.1782L44.7286 11.9472L45.083 11.8702L45.4374 11.9472C45.6905 12.1269 46.1966 12.5016 46.1966 12.5632C46.1966 12.6248 46.5003 13.2049 46.6521 13.4872L46.9051 14.0262C46.9219 14.1802 46.9457 14.519 46.9051 14.6422C46.8646 14.7654 46.8209 15.6176 46.8038 16.0283L50.7014 10.7152V9.56016L50.6001 8.63617C50.6001 8.55916 50.6001 8.37436 50.6001 8.25115C50.6001 8.12795 50.6001 8.09715 50.6001 8.09715L50.7014 7.78914L50.8532 7.40414C50.887 7.30148 50.9748 7.04994 51.0558 6.86512C51.1569 6.63412 51.0558 5.63312 51.0558 5.55611C51.0558 5.49453 51.0219 4.81177 51.0051 4.4781L50.9545 4.0931L50.8025 3.63109L50.499 3.16909L50.1446 2.78409L49.5372 2.55308L48.8793 2.47607H48.1201L47.2595 2.63007L19.9268 10.5612L17.5479 12.7172M17.4466 12.7942L9.49992 20.2633H7.77896L15.9282 12.7942H17.4466ZM3.07168 28.8874V29.5034M33.4414 47.4447L36.1745 48.9076H40.2238L41.8436 48.3688L44.6779 46.8286L46.6014 45.5197L48.2211 43.5177L47.715 42.9786L51.3089 37.0496L52.1692 37.5114L53.1817 35.3554L53.0803 30.1965L52.6753 28.6563L51.815 27.3474L50.8025 26.5003L48.8286 25.4224L47.8668 25.0374L46.399 27.3474L45.4878 28.5793L33.4414 47.3677M33.0363 47.8297L36.1745 49.5237H40.2238L41.9955 48.9076L44.8299 47.3677L46.9051 45.9817L48.6262 43.5947L48.1201 43.0556L51.4099 37.3574L52.2198 37.8195L53.3334 35.4324V30.1965L52.878 28.5023L51.9161 27.1164L50.9038 26.2693L48.8793 25.2684L47.8164 24.8064L38.9585 20.8023L35.8203 22.8043L34.403 23.6513L45.2854 28.4253L33.1883 47.1366L3.22352 29.1184L3.12229 29.5805L32.9857 47.8297H33.0363ZM50.0939 35.4324L50.2459 34.9704C50.2627 34.8166 50.2862 34.5086 50.2459 34.5086C50.2054 34.5086 49.959 34.0978 49.8409 33.8925L49.0817 33.2764L48.4742 33.0454H47.8164H47.2595L46.8038 33.2764C46.6859 33.3792 46.4294 33.6152 46.3483 33.7385C46.2673 33.8618 45.5723 34.9191 45.2347 35.4324L41.3881 41.5157C41.3713 41.6952 41.3374 42.0701 41.3374 42.1315C41.3374 42.1932 41.4387 42.5678 41.4891 42.7476L41.8436 43.2867C41.9956 43.4407 42.3091 43.7487 42.3497 43.7487C42.4003 43.7487 42.8558 43.9795 42.9065 43.9795C42.947 43.9795 43.3283 43.9795 43.5139 43.9795L44.2225 43.9027L44.8299 43.5947L45.5385 42.6706L50.0939 35.4324Z" stroke="black" stroke-width="0.75"/>
<path d="M40.743 15.711L39.2763 16.2233L44.9337 10.6732L45.9115 9.81939L46.8891 9.30707H47.4481L47.3083 9.56323L44.4446 12.6371L43.0478 13.9179L40.743 15.711ZM40.743 15.711L39.2763 16.3941L37.4603 16.9918C36.8785 17.1057 35.6865 17.3333 35.5747 17.3333C35.435 17.3333 34.6667 17.1626 34.6667 16.9918C34.6667 16.8552 34.6667 16.4226 34.6667 16.2233C34.9462 15.8249 35.5187 14.9767 35.5747 14.7718C35.6305 14.5668 40.5801 10.1325 43.0478 7.94091C43.3273 7.7132 43.831 7.15439 43.9558 7.00166C44.0955 6.83088 45.2827 6.40396 45.9115 6.23318L47.6574 5.46472L48.775 5.12318L49.8225 4.95239H50.2417C50.3579 5.06625 50.6049 5.32808 50.6606 5.46472C50.7305 5.63547 50.1718 6.66012 50.1019 6.83088L49.5433 7.68475L44.5843 12.6371" stroke="black" stroke-width="0.75"/>
<path d="M2.66675 27.238L6.4744 26.585L31.1982 22.34C31.6153 22.2584 32.4603 22.0788 32.5022 22.0135C32.5438 21.9482 33.4235 21.4965 33.8582 21.2788C34.9363 20.5713 37.1131 19.1564 37.1966 19.1564C37.2801 19.1564 39.1091 17.687 40.0131 16.9523L42.4123 15.0747L45.3334 12.3809" stroke="black" stroke-width="0.75"/>
</svg>
