<svg width="59" height="59" viewBox="0 0 59 59" fill="none" xmlns="http://www.w3.org/2000/svg">
<g clip-path="url(#clip0_94_248)">
<path d="M58.6222 29.9897C58.4835 29.8333 55.1353 26.1399 49.902 22.4023C46.8133 20.1957 43.707 18.4375 40.6685 17.1719C36.8187 15.5671 33.0604 14.7529 29.4998 14.7529C25.9391 14.7529 22.1808 15.5671 18.3311 17.1719C15.2926 18.4375 12.1862 20.1986 9.09756 22.4023C3.86426 26.1399 0.516011 29.8363 0.377361 29.9897C-0.127089 30.5502 -0.127089 31.4027 0.377361 31.9632C0.516011 32.1196 3.86426 35.813 9.09756 39.5506C12.1862 41.7572 15.2926 43.5154 18.3311 44.781C22.1808 46.3858 25.9391 47.2 29.4998 47.2C33.0604 47.2 36.8187 46.3858 40.6685 44.781C43.707 43.5154 46.8133 41.7543 49.902 39.5506C55.1353 35.813 58.4835 32.1166 58.6222 31.9632C59.1266 31.4027 59.1266 30.5502 58.6222 29.9897ZM37.0931 18.9921C39.7687 21.2429 41.2998 24.5174 41.2998 28.025C41.2998 34.5327 36.0075 39.825 29.4998 39.825C22.9921 39.825 17.6998 34.5327 17.6998 28.025C17.6998 24.5204 19.2308 21.2429 21.9065 18.9921C24.3314 18.2015 26.8949 17.7 29.4998 17.7C32.1046 17.7 34.6682 18.2015 37.0931 18.9921ZM48.1349 37.1877C43.6126 40.4091 36.7096 44.25 29.4998 44.25C22.29 44.25 15.387 40.4091 10.8646 37.1877C7.45146 34.7569 4.84071 32.2966 3.52206 30.975C4.84071 29.6534 7.45146 27.196 10.8646 24.7623C12.4281 23.6472 14.2748 22.4613 16.3221 21.3845C15.2985 23.4141 14.7498 25.6768 14.7498 28.025C14.7498 36.1581 21.3666 42.775 29.4998 42.775C37.6329 42.775 44.2498 36.1581 44.2498 28.025C44.2498 25.6768 43.7011 23.4141 42.6774 21.3845C44.7247 22.4613 46.5714 23.6501 48.1349 24.7623C51.5481 27.1931 54.1588 29.6534 55.4775 30.975C54.1588 32.2966 51.5481 34.7539 48.1349 37.1877Z" fill="black"/>
</g>
<defs>
<clipPath id="clip0_94_248">
<rect width="59" height="59" fill="white"/>
</clipPath>
</defs>
</svg>
