<svg width="15" height="15" viewBox="0 0 15 15" fill="none" xmlns="http://www.w3.org/2000/svg">
<path d="M7.5 1.35136C9.5025 1.35136 9.73964 1.35886 10.5307 1.39493C11.0063 1.40075 11.4775 1.48809 11.9236 1.65314C12.2471 1.77789 12.5409 1.96901 12.7861 2.21418C13.0313 2.45935 13.2224 2.75314 13.3471 3.07664C13.5122 3.52273 13.5995 3.99382 13.6054 4.46943C13.6411 5.26046 13.6489 5.4976 13.6489 7.5C13.6489 9.5024 13.6414 9.73954 13.6054 10.5306C13.5995 11.0062 13.5122 11.4773 13.3471 11.9234C13.2224 12.2469 13.0313 12.5406 12.7861 12.7858C12.5409 13.031 12.2471 13.2221 11.9236 13.3469C11.4775 13.5119 11.0063 13.5992 10.5307 13.6051C9.74 13.6408 9.50286 13.6486 7.5 13.6486C5.49714 13.6486 5.26 13.6411 4.46929 13.6051C3.99365 13.5992 3.52254 13.5119 3.07643 13.3469C2.75291 13.2221 2.45911 13.031 2.21393 12.7858C1.96875 12.5406 1.77762 12.2469 1.65286 11.9234C1.4878 11.4773 1.40046 11.0062 1.39464 10.5306C1.35893 9.73954 1.35107 9.5024 1.35107 7.5C1.35107 5.4976 1.35857 5.26046 1.39464 4.46943C1.40046 3.99382 1.4878 3.52273 1.65286 3.07664C1.77762 2.75314 1.96875 2.45935 2.21393 2.21418C2.45911 1.96901 2.75291 1.77789 3.07643 1.65314C3.52254 1.48809 3.99365 1.40075 4.46929 1.39493C5.26036 1.35922 5.4975 1.35136 7.5 1.35136ZM7.5 0C5.46429 0 5.20786 0.008571 4.40786 0.0449978C3.78537 0.0573786 3.1695 0.175235 2.58643 0.393553C2.08625 0.581996 1.63321 0.877303 1.25893 1.25887C0.877 1.63327 0.581426 2.08654 0.392857 2.58702C0.174529 3.17006 0.0566671 3.78591 0.0442857 4.40836C0.00857145 5.20761 0 5.46403 0 7.49964C0 9.53526 0.0085714 9.79168 0.045 10.5916C0.0573814 11.2141 0.175243 11.8299 0.393572 12.413C0.581932 12.9134 0.877258 13.3667 1.25893 13.7411C1.63342 14.1228 2.08671 14.4181 2.58714 14.6064C3.17021 14.8248 3.78609 14.9426 4.40857 14.955C5.20857 14.9907 5.46393 15 7.50071 15C9.5375 15 9.79286 14.9914 10.5929 14.955C11.2153 14.9426 11.8312 14.8248 12.4143 14.6064C12.9123 14.4134 13.3646 14.1185 13.7422 13.7407C14.1198 13.3629 14.4144 12.9104 14.6071 12.4123C14.8255 11.8292 14.9433 11.2134 14.9557 10.5909C14.9914 9.79168 15 9.53526 15 7.49964C15 5.46403 14.9914 5.20761 14.955 4.40765C14.9426 3.78519 14.8248 3.16935 14.6064 2.58631C14.4181 2.08589 14.1227 1.63263 13.7411 1.25815C13.3666 0.876502 12.9133 0.581189 12.4129 0.392838C11.8298 0.17452 11.2139 0.0566644 10.5914 0.0442836C9.79214 0.00857105 9.53571 0 7.5 0Z" fill="#417A45"/>
<path d="M7.50011 3.65114C6.73837 3.65114 5.99374 3.87701 5.36037 4.30019C4.72701 4.72337 4.23336 5.32485 3.94186 6.02858C3.65035 6.7323 3.57408 7.50666 3.72269 8.25372C3.8713 9.00079 4.23811 9.68702 4.77674 10.2256C5.31537 10.7642 6.00163 11.131 6.74874 11.2796C7.49584 11.4282 8.27023 11.352 8.97399 11.0605C9.67775 10.769 10.2793 10.2754 10.7025 9.64202C11.1257 9.00869 11.3515 8.26409 11.3515 7.50238C11.3515 6.48097 10.9458 5.50139 10.2235 4.77914C9.5012 4.05689 8.52158 3.65114 7.50011 3.65114ZM7.50011 10.0023C7.00566 10.0023 6.52231 9.85565 6.11119 9.58096C5.70006 9.30627 5.37963 8.91584 5.19041 8.45905C5.00119 8.00225 4.95169 7.49961 5.04815 7.01468C5.14461 6.52975 5.38271 6.08432 5.73235 5.7347C6.08198 5.38509 6.52743 5.147 7.01239 5.05054C7.49734 4.95408 8.00001 5.00358 8.45682 5.19279C8.91364 5.382 9.30408 5.70242 9.57879 6.11352C9.85349 6.52463 10.0001 7.00795 10.0001 7.50238C10.0001 8.16539 9.73672 8.80125 9.26788 9.27007C8.79904 9.73889 8.16315 10.0023 7.50011 10.0023Z" fill="#417A45"/>
<path d="M11.5038 4.3949C12.0008 4.3949 12.4038 3.99198 12.4038 3.49494C12.4038 2.99791 12.0008 2.59499 11.5038 2.59499C11.0067 2.59499 10.6038 2.99791 10.6038 3.49494C10.6038 3.99198 11.0067 4.3949 11.5038 4.3949Z" fill="#417A45"/>
</svg>
