<svg width="59" height="59" viewBox="0 0 59 59" fill="none" xmlns="http://www.w3.org/2000/svg">
<g clip-path="url(#clip0_94_271)">
<path fill-rule="evenodd" clip-rule="evenodd" d="M5.74464 2.45825H5.03856L5.00785 3.24205L3.64118 38.1205H2.9499H2.2124V38.9399V51.5266V52.0153L2.59926 52.2474L9.5861 56.4429L10.0537 56.7238L10.4414 56.3197L16.7295 49.7641L18.0888 48.3471H16.2249H10.5084L9.27689 43.0316V36.8421V36.0227H8.53939H7.9308L9.22892 14.586H11.0509L18.9808 22.5224V26.3533V26.7886L19.3055 27.0323L22.1002 29.1301L22.6856 29.5694L23.1059 28.9385L24.0447 27.5291L30.1265 33.0071L28.7655 49.3534L28.691 50.2483H29.4999H56.0499H56.7874V49.4288V43.1355V42.8651L56.6426 42.6481L55.2454 40.5503L55.0242 40.2183H54.6525H44.211V34.7444V34.4739L44.0664 34.257L41.2716 30.0613L41.0506 29.7294H40.6789H36.7846L27.2615 19.5176L25.9006 17.4746L25.8565 17.4084L25.8014 17.3533L13.469 5.01072V3.2777V2.45825H12.7315H5.74464ZM7.142 37.6616H7.80189V43.1355V43.2394L7.82516 43.3397L9.22255 49.3708L9.36506 49.986H9.93674H14.361L9.81974 54.7205L3.6874 51.0379V39.7594H4.34726H5.05337L5.08408 38.9756L6.45073 4.09714H11.994V5.37547V5.74023L12.2379 5.98435L24.7591 18.5159L26.1124 20.5474L26.1489 20.6022L26.193 20.6496L35.5344 30.6665L31.2053 31.8691L24.3749 25.7167L23.7761 25.1774L23.3176 25.8657L22.3405 27.3326L20.4558 25.9179V22.1577V21.7929L20.2119 21.5488L11.8277 13.1577L11.6173 12.9471H11.3341H8.53939H7.84982L7.80354 13.7116L6.40618 36.7871L6.35323 37.6616H7.142ZM31.5705 33.4569L30.4176 47.3015L36.1374 42.217V32.1883L31.5705 33.4569ZM37.6124 42.611V31.3683H40.3072L42.736 35.0148V41.0377V41.8571H43.4735H54.2808L55.3124 43.4059V48.6094H31.3074L37.3357 43.2509L37.6124 43.005V42.611ZM26.5499 52.4444H53.0999C54.7292 52.4444 56.0499 53.9118 56.0499 55.7221C56.0499 57.5325 54.7292 58.9999 53.0999 58.9999H26.5499C24.9207 58.9999 23.5999 57.5325 23.5999 55.7221C23.5999 53.9118 24.9207 52.4444 26.5499 52.4444Z" fill="black"/>
</g>
<defs>
<clipPath id="clip0_94_271">
<rect width="59" height="59" fill="white"/>
</clipPath>
</defs>
</svg>
