<svg width="59" height="59" viewBox="0 0 59 59" fill="none" xmlns="http://www.w3.org/2000/svg">
<g clip-path="url(#clip0_94_281)">
<path d="M3.4707 5.61909L3.57503 52.2667L3.83584 53.2706L4.25315 54.0918L4.72261 54.7762C4.91388 54.9585 5.31726 55.3328 5.40073 55.3693C5.50506 55.4148 5.76587 55.6887 5.8702 55.6887C5.95367 55.6887 6.49615 55.932 6.75697 56.0537L7.48725 56.1905H50.9393L52.3477 55.9169L53.3385 55.3693L54.0691 54.8675L54.6428 54.0918L55.1124 53.2248L55.4251 52.4494L55.5295 51.8105V19.052L55.373 18.8239L38.0027 3.12896C37.8635 3.0377 37.5751 2.8552 37.5331 2.8552C37.4915 2.8552 37.1333 2.82477 36.9594 2.80957H6.94129" stroke="black" stroke-width="0.75"/>
<path d="M6.9952 5.61914H35.2004L35.2546 15.4469L35.3625 15.9217L35.4708 16.3964L35.6867 17.0136L36.0108 17.5834L36.5512 18.248L37.2536 18.8652L37.6319 19.1501L38.4423 19.5774L39.1448 19.8622L40.3338 20.1471L41.2521 20.1946L52.0588 20.2421V52.8113L51.3564 53.381H7.21131L6.94116 53.0012V52.289L6.9952 5.61914Z" stroke="black" stroke-width="0.75"/>
<path d="M17.3529 42.1428L16.128 42.417L15.0052 42.9652L14.1886 43.7875L13.8823 44.8152L14.1886 45.9118L15.0052 46.8024L16.0259 47.3508L17.3529 47.7619" stroke="#0A0B0A" stroke-width="0.75"/>
<path d="M41.647 42.1428L43.0762 42.4856L44.1989 43.1023L44.9135 43.9929L45.1176 44.9523V45.5005L44.9135 45.9118L44.7094 46.3228L44.1989 46.8024L43.5863 47.1452L42.9741 47.4191L41.647 47.7619" stroke="#0B0C0B" stroke-width="0.75"/>
<path d="M17.353 42.1428H41.6471" stroke="#0A0B0A" stroke-width="0.75"/>
<path d="M41.6471 47.762H17.353" stroke="#131313" stroke-width="0.75"/>
<path d="M17.3529 25.2856L16.128 25.5597L15.0052 26.1079L14.1886 26.9303L13.8823 27.9581L14.1886 29.0546L15.0052 29.9452L16.0259 30.4937L17.3529 30.9047" stroke="black" stroke-width="0.75"/>
<path d="M41.647 25.2856L43.0762 25.6283L44.1989 26.245L44.9135 27.1358L45.1176 28.0952V28.6433L44.9135 29.0546L44.7094 29.4657L44.1989 29.9452L43.5863 30.288L42.9741 30.5619L41.647 30.9047" stroke="black" stroke-width="0.75"/>
<path d="M17.353 25.2856H41.6471" stroke="black" stroke-width="0.75"/>
<path d="M41.6471 30.9048H17.353" stroke="black" stroke-width="0.75"/>
<path d="M17.3529 33.7144L16.128 33.9886L15.0052 34.5367L14.1886 35.359L13.8823 36.3868L14.1886 37.4833L15.0052 38.3739L16.0259 38.9224L17.3529 39.3334" stroke="#0C0C0D" stroke-width="0.75"/>
<path d="M41.647 33.7144L43.0762 34.0571L44.1989 34.6738L44.9135 35.5644L45.1176 36.5239V37.072L44.9135 37.4833L44.7094 37.8944L44.1989 38.3739L43.5863 38.7167L42.9741 38.9906L41.647 39.3334" stroke="#09090A" stroke-width="0.75"/>
<path d="M17.353 33.7144H41.6471" stroke="#0D0D0E" stroke-width="0.75"/>
<path d="M41.6471 39.3333H17.353" stroke="#171717" stroke-width="0.75"/>
<path d="M3.4707 5.61909V4.21433L5.206 2.80957H6.94129" stroke="black" stroke-width="0.75"/>
</g>
<defs>
<clipPath id="clip0_94_281">
<rect width="59" height="59" fill="white"/>
</clipPath>
</defs>
</svg>
