<svg width="59" height="59" viewBox="0 0 59 59" fill="none" xmlns="http://www.w3.org/2000/svg">
<path d="M20.7884 36.3322V36.1527C20.8131 34.247 21.0596 32.7307 21.5279 31.6033C21.9963 30.4758 22.6618 29.563 23.5245 28.8645C24.3872 28.1661 25.4225 27.5226 26.6303 26.934C27.3574 26.5748 28.0106 26.1508 28.5899 25.6619C29.1691 25.163 29.6251 24.5894 29.9579 23.9409C30.303 23.2923 30.4755 22.574 30.4755 21.7858C30.4755 20.8081 30.1921 19.96 29.6251 19.2417C29.0582 18.5233 28.3002 17.9696 27.3512 17.5805C26.4023 17.1914 25.3485 16.9969 24.19 16.9969C23.1794 16.9969 22.2057 17.1665 21.2691 17.5057C20.3324 17.8449 19.5498 18.3787 18.9213 19.107C18.2927 19.8353 17.9291 20.7881 17.8305 21.9654H13.1719C13.2705 20.2693 13.8128 18.8177 14.7987 17.6104C15.797 16.4032 17.1096 15.4803 18.7364 14.8418C20.3756 14.2033 22.1934 13.884 24.19 13.884C26.3591 13.884 28.2448 14.2332 29.847 14.9316C31.4615 15.63 32.7063 16.5878 33.5813 17.805C34.4687 19.0222 34.9123 20.409 34.9123 21.9654C34.9123 23.0629 34.7028 24.0556 34.2838 24.9436C33.8771 25.8315 33.2855 26.6247 32.5091 27.3231C31.7449 28.0214 30.8206 28.64 29.7361 29.1789C28.6515 29.7276 27.7826 30.3061 27.1294 30.9149C26.4762 31.5133 26.0017 32.2267 25.7059 33.0549C25.4101 33.8829 25.2499 34.9157 25.2253 36.1527V36.3322H20.7884ZM23.1547 45.1918C22.2427 45.1918 21.4601 44.9274 20.8069 44.3987C20.1537 43.8699 19.8271 43.2364 19.8271 42.498C19.8271 41.7597 20.1537 41.1261 20.8069 40.5974C21.4601 40.0686 22.2427 39.8042 23.1547 39.8042C24.0668 39.8042 24.8494 40.0686 25.5026 40.5974C26.1558 41.1261 26.4824 41.7597 26.4824 42.498C26.4824 42.9869 26.3283 43.4358 26.0202 43.8449C25.7244 44.254 25.3239 44.5833 24.8186 44.8327C24.3256 45.0721 23.771 45.1918 23.1547 45.1918Z" fill="#054BFF"/>
<path d="M3.4707 5.61909L3.57503 52.2667L3.83584 53.2706L4.25315 54.0918L4.72261 54.7762C4.91388 54.9585 5.31726 55.3328 5.40073 55.3693C5.50506 55.4148 5.76587 55.6887 5.8702 55.6887C5.95367 55.6887 6.49615 55.932 6.75697 56.0537L7.48725 56.1905H50.9393L52.3477 55.9169L53.3385 55.3693L54.0691 54.8675L54.6428 54.0918L55.1124 53.2248L55.4251 52.4494L55.5295 51.8105V19.052L55.373 18.8239L38.0027 3.12896C37.8635 3.0377 37.5751 2.8552 37.5331 2.8552C37.4915 2.8552 37.1333 2.82477 36.9594 2.80957H6.94129" stroke="#0D0D0D" stroke-width="0.75"/>
<path d="M6.9952 5.61914H35.2004L35.2546 15.4469L35.3625 15.9217L35.4708 16.3964L35.6867 17.0136L36.0108 17.5834L36.5512 18.248L37.2536 18.8652L37.6319 19.1501L38.4423 19.5774L39.1448 19.8622L40.3338 20.1471L41.2521 20.1946L52.0588 20.2421V52.8113L51.3564 53.381H7.21131L6.94116 53.0012V52.289L6.9952 5.61914Z" stroke="#0D0D0D" stroke-width="0.75"/>
<path d="M3.4707 5.61909V4.21433L5.206 2.80957H6.94129" stroke="#0D0D0D" stroke-width="0.75"/>
</svg>
