<svg width="55" height="55" viewBox="0 0 55 55" fill="none" xmlns="http://www.w3.org/2000/svg">
<g clip-path="url(#clip0_94_275)">
<g clip-path="url(#clip1_94_275)">
<path d="M56.5978 15.4931L49.2367 8.31579C48.7004 7.77939 48.2204 7.77939 47.6841 8.31579C47.1478 8.85219 47.1478 9.33202 47.6841 9.86842L51.3682 14.0181C50.0273 14.6886 48.9545 16.1636 48.9545 17.7727C48.9545 20.0523 50.6978 21.7954 52.9773 21.7954C53.5136 21.7954 53.9157 21.6613 54.3182 21.5273V45.9317C54.3182 48.2113 52.5749 48.8295 50.2953 48.8295C48.0157 48.8295 46.2728 48.2113 46.2728 45.9317V24.4773C46.2728 20.7227 42.1229 17.7727 38.3683 17.7727H36.8862V5.70457C36.8865 1.95 33.9365 -1 30.1819 -1H8.72729C4.97272 -1 2.02272 1.95 2.02272 5.70457V49.9546C-0.256848 49.9546 -2 51.6979 -2 53.9771C-2 56.2567 -0.256848 58 2.02272 58H36.8862C39.1657 58 40.909 56.2567 40.909 53.9771C40.909 51.6979 39.1657 49.9546 36.8862 49.9546L6.28382 50.2368C5.47928 50.2368 5.06066 50.4909 5.06066 51.2954C5.06066 52.1 5.47937 52.6363 6.28382 52.6363H36.8865C37.691 52.6363 38.2273 53.1729 38.2273 53.9771C38.2273 54.7817 37.6907 55.318 36.8865 55.318H2.02272C1.21815 55.318 0.681851 54.7817 0.681851 53.9771C0.681851 53.1729 1.21827 52.6363 2.02272 52.6363H3.36357C4.16815 52.6363 4.70446 52.1 4.70446 51.2954V5.70457C4.70446 3.425 6.44759 1.68185 8.72717 1.68185H30.1816C32.4612 1.68185 34.2045 3.425 34.2045 5.70457L33.7104 47.1316C33.7104 47.9362 34.4588 48.6842 35.263 48.6842C36.0676 48.6842 36.8157 47.9362 36.8157 47.1316L36.8862 20.4546H38.3683C40.6479 20.4546 43.5907 22.1977 43.5907 24.4773V45.9317C43.5907 49.6863 46.5407 51.1957 50.2953 51.1957C54.0499 51.1957 56.9999 49.6863 56.9999 45.9317V16.4319C56.9999 16.0296 56.8657 15.7614 56.5978 15.4931ZM52.9773 19.1136C52.1727 19.1136 50.7894 18.436 50.7894 17.6316C50.7894 16.827 52.1727 16.4319 52.9773 16.4319C53.7816 16.4319 54.3182 16.9683 54.3182 17.7727C54.3182 18.5773 53.7819 19.1136 52.9773 19.1136Z" fill="black"/>
<path d="M20.979 15.207C20.5132 14.2995 18.9606 14.2995 18.4948 15.207C18.029 16.1146 13.5264 24.1014 13.5264 28.6394C13.5264 32.8145 16.3211 36.2632 19.7369 36.2632C23.1527 36.2632 25.9474 32.8145 25.9474 28.6394C25.9474 24.1014 21.6 16.1146 20.979 15.207ZM19.7369 32.6329C18.029 32.6329 16.6316 30.8178 16.6316 28.6394C16.6316 26.6427 18.1842 22.8309 19.7369 19.745C21.2895 22.8309 22.8422 26.6427 22.8422 28.6394C22.8422 30.8175 21.4448 32.6329 19.7369 32.6329Z" fill="#14C5FD"/>
</g>
</g>
<defs>
<clipPath id="clip0_94_275">
<rect width="55" height="55" fill="white"/>
</clipPath>
<clipPath id="clip1_94_275">
<rect width="59" height="59" fill="white" transform="translate(-2 -1)"/>
</clipPath>
</defs>
</svg>
