<svg width="14" height="14" viewBox="0 0 14 14" fill="none" xmlns="http://www.w3.org/2000/svg">
<path fill-rule="evenodd" clip-rule="evenodd" d="M7 0C6.22447 0 5.32 0.0233755 4.43833 0.0550994L4.40251 0.0567689C3.50521 0.0893276 2.78112 0.115208 2.2107 0.236259C1.61619 0.36232 1.1226 0.603588 0.728 1.12369C0.332093 1.64547 0.159535 2.2908 0.0781395 3.06302C4.85154e-09 3.80603 0 4.74773 0 5.91817V7.19047C0 8.35924 4.85154e-09 9.30094 0.0781395 10.0448C0.158884 10.817 0.332093 11.4623 0.728 11.9841C1.1226 12.5051 1.61619 12.7455 2.2107 12.8715C2.78112 12.9926 3.50521 13.0185 4.40251 13.051L4.43833 13.0527C5.32065 13.0844 6.22447 13.1078 7 13.1078C7.77554 13.1078 8.68 13.0844 9.56168 13.0527L9.59749 13.051C10.4948 13.0185 11.2189 12.9926 11.7893 12.8715C12.3838 12.7455 12.8774 12.5042 13.272 11.9841C13.6679 11.4623 13.8411 10.817 13.9219 10.0448C14 9.30178 14 8.36008 14 7.18963V5.91734C14 4.74773 14 3.80603 13.9219 3.06302C13.8411 2.2908 13.6679 1.64547 13.272 1.12369C12.8774 0.602754 12.3838 0.36232 11.7893 0.236259C11.2189 0.115208 10.4948 0.0893276 9.59684 0.0567689L9.56168 0.0550994C8.70802 0.0218801 7.85405 0.00351196 7 0ZM6.26549 8.76664C6.19123 8.82103 6.10713 8.84946 6.02161 8.84909C5.93608 8.84872 5.85214 8.81956 5.77816 8.76453C5.70419 8.70951 5.64279 8.63054 5.60009 8.53553C5.5574 8.44053 5.53491 8.33281 5.53488 8.22316V4.88381C5.53491 4.77416 5.5574 4.66645 5.60009 4.57144C5.64279 4.47643 5.70419 4.39747 5.77816 4.34244C5.85214 4.28741 5.93608 4.25826 6.02161 4.25788C6.10713 4.25751 6.19123 4.28594 6.26549 4.34033L8.54456 6.01001C8.61925 6.06479 8.68133 6.14391 8.72451 6.23935C8.76768 6.33479 8.79042 6.44316 8.79042 6.55349C8.79042 6.66382 8.76768 6.77219 8.72451 6.86762C8.68133 6.96306 8.61925 7.04218 8.54456 7.09697L6.26549 8.76664Z" fill="#FC2828"/>
</svg>
